# xmcd
#
# Track frame offsets: 
#        151
#        17196
#        33020
#        48107
#        69089
#        81129
#        99356
#        116060
#        134207
#        152066
#
# Disc length: 2256 seconds
#
# Revision: 0
# Processed by: cddbd v1.5.1PL0 Copyright (c) Steve Scherf et al.
# Submitted via: ExactAudioCopy v0.95a5
#
DISCID=7708ce0a
DTITLE=Birdlegg - Meet Me on the Corner
DYEAR=1900
DGENRE=Blues
TTITLE0=Peach Tree Blues
TTITLE1=I Want Your Love
TTITLE2=Meet Me On The Corner
TTITLE3=Cold At Night
TTITLE4=Birdlegg's Boogie
TTITLE5=Draw In Your Lip
TTITLE6=My Babe
TTITLE7=Maria
TTITLE8=Sex Machine
TTITLE9=Baby, I'm Gone
EXTD=
EXTT0=
EXTT1=
EXTT2=
EXTT3=
EXTT4=
EXTT5=
EXTT6=
EXTT7=
EXTT8=
EXTT9=
PLAYORDER=
